# Blender 3.6.4
# www.blender.org
mtllib GroundSlam.mtl
o Cube
v -0.588915 0.012675 1.005818
v -1.000000 0.012675 -1.005818
v 0.588915 0.012675 1.005818
v 1.000000 0.012675 -1.005818
v 0.000000 0.012675 1.005818
v 0.000000 0.329311 1.005818
v -0.988841 0.012675 -1.012292
v 0.988841 0.012675 -1.012292
v 0.000000 0.012675 -0.437803
v -0.803421 0.012675 -1.114881
v -0.601023 0.012675 -1.206030
v -0.375281 0.012675 -1.276342
v -0.128108 0.012675 -1.315485
v 0.128108 0.012675 -1.315485
v 0.375281 0.012675 -1.276342
v 0.601023 0.012675 -1.206030
v 0.803421 0.012675 -1.114881
v 0.988841 0.611694 -1.012292
v -0.988841 0.611694 -1.012292
v 0.000000 0.544653 -0.507712
v 0.803421 0.611694 -1.114881
v 0.601023 0.611694 -1.206030
v 0.375281 0.611694 -1.276342
v 0.128108 0.611694 -1.315485
v -0.128108 0.611694 -1.315485
v -0.375281 0.611694 -1.276342
v -0.601023 0.611694 -1.206030
v -0.803421 0.611694 -1.114881
v -0.255829 0.329311 1.005818
v -0.588915 0.221277 1.005818
v -0.329948 0.326602 1.005818
v -0.400349 0.318612 1.005818
v -0.463505 0.305741 1.005818
v -0.516246 0.288635 1.005818
v -0.555929 0.268151 1.005818
v -0.580564 0.245317 1.005818
v -1.000000 0.503661 -1.005818
v -0.988841 0.611694 -1.012292
v -0.999720 0.527701 -1.005980
v -0.998895 0.550535 -1.006459
v -0.997565 0.571018 -1.007230
v -0.995798 0.588125 -1.008255
v -0.993683 0.600995 -1.009483
v -0.991324 0.608985 -1.010851
v 0.588915 0.221277 1.005818
v 0.255829 0.329311 1.005818
v 0.580564 0.245317 1.005818
v 0.555929 0.268151 1.005818
v 0.516246 0.288635 1.005818
v 0.463505 0.305741 1.005818
v 0.400349 0.318612 1.005818
v 0.329948 0.326602 1.005818
v 0.988841 0.611694 -1.012292
v 1.000000 0.503661 -1.005818
v 0.991324 0.608985 -1.010852
v 0.993683 0.600995 -1.009483
v 0.995798 0.588125 -1.008255
v 0.997565 0.571018 -1.007230
v 0.998895 0.550535 -1.006459
v 0.999720 0.527701 -1.005980
vn -0.0000 0.9931 0.1171
vn -0.1748 0.9590 -0.2232
vn -0.1271 0.9917 -0.0193
vn -0.0262 0.9053 0.4239
vn -0.0000 0.9045 0.4264
vn 0.1417 -0.9578 -0.2501
vn 0.1748 0.9590 -0.2232
vn 0.1271 0.9917 -0.0193
vn 0.2737 0.9549 -0.1148
vn 0.4387 0.8857 -0.1520
vn 0.5927 0.7798 -0.2014
vn 0.7277 0.6344 -0.2606
vn 0.8318 0.4538 -0.3196
vn 0.8957 0.2478 -0.3693
vn 0.9142 0.0694 -0.3992
vn 0.3413 -0.9275 -0.1525
vn 0.2404 -0.9253 0.2932
vn 0.6424 0.0423 0.7652
vn 0.6268 0.2025 0.7524
vn 0.5568 0.4101 0.7224
vn 0.4625 0.5811 0.6697
vn 0.3536 0.7151 0.6030
vn 0.2358 0.8152 0.5291
vn 0.1116 0.8831 0.4556
vn 0.0262 0.9053 0.4239
vn -0.0000 -0.9584 0.2854
vn -0.2404 -0.9253 0.2932
vn -0.6424 0.0423 0.7652
vn -0.9142 0.0694 -0.3992
vn -0.3413 -0.9275 -0.1525
vn -0.1417 -0.9578 -0.2501
vn -0.0000 -1.0000 -0.0000
vn -0.8957 0.2478 -0.3693
vn -0.8318 0.4538 -0.3196
vn -0.7277 0.6344 -0.2606
vn -0.5927 0.7798 -0.2014
vn -0.4387 0.8857 -0.1520
vn -0.2737 0.9549 -0.1148
vn -0.1310 -0.9563 -0.2615
vn -0.1048 -0.9553 -0.2763
vn -0.0676 -0.9548 -0.2895
vn -0.0234 -0.9545 -0.2973
vn 0.0234 -0.9545 -0.2973
vn 0.0676 -0.9548 -0.2895
vn 0.1048 -0.9553 -0.2763
vn 0.1310 -0.9563 -0.2615
vn 0.1042 0.9722 -0.2099
vn 0.0826 0.9719 -0.2203
vn 0.0527 0.9720 -0.2290
vn 0.0181 0.9721 -0.2339
vn -0.0181 0.9721 -0.2339
vn -0.0527 0.9720 -0.2290
vn -0.0826 0.9719 -0.2203
vn -0.1042 0.9722 -0.2099
vn -0.1116 0.8831 0.4556
vn -0.2358 0.8152 0.5291
vn -0.3536 0.7151 0.6030
vn -0.4625 0.5811 0.6697
vn -0.5568 0.4101 0.7224
vn -0.6268 0.2025 0.7524
vt 0.750000 0.604009
vt 0.873605 0.500000
vt 0.804301 0.750000
vt 0.750000 0.750000
vt 0.375000 0.498605
vt 0.625000 0.498605
vt 0.625400 0.499889
vt 0.624201 0.500754
vt 0.622342 0.502112
vt 0.607998 0.499826
vt 0.599464 0.499921
vt 0.589942 0.499980
vt 0.579912 0.500000
vt 0.375000 0.500000
vt 0.375000 0.750000
vt 0.539702 0.750000
vt 0.558683 0.751773
vt 0.576712 0.757001
vt 0.592884 0.765424
vt 0.606391 0.776619
vt 0.616553 0.790024
vt 0.622861 0.804967
vt 0.625000 0.820699
vt 0.625000 0.875000
vt 0.375000 0.875000
vt 0.375000 0.000000
vt 0.539702 0.000000
vt 0.579912 0.250000
vt 0.375000 0.250000
vt 0.125000 0.500000
vt 0.126395 0.500000
vt 0.250000 0.610752
vt 0.250000 0.750000
vt 0.125000 0.750000
vt 0.579912 0.250000
vt 0.589945 0.250035
vt 0.599475 0.250138
vt 0.608024 0.250304
vt 0.615163 0.250525
vt 0.620535 0.250790
vt 0.623870 0.251084
vt 0.625000 0.251395
vt 0.375000 0.251395
vt 0.626395 0.500000
vt 0.695699 0.750000
vt 0.373605 0.500000
vt 0.126395 0.500000
vt 0.149532 0.500507
vt 0.174648 0.503160
vt 0.202557 0.509209
vt 0.250000 0.526093
vt 0.250000 0.529869
vt 0.250000 0.536651
vt 0.250000 0.545443
vt 0.250000 0.555338
vt 0.625000 0.375000
vt 0.625000 0.425014
vt 0.575969 0.317000
vt 0.625000 0.410933
vt 0.625000 0.393542
vt 0.625000 0.372465
vt 0.625000 0.348434
vt 0.625000 0.323145
vt 0.625000 0.298190
vt 0.625000 0.274304
vt 0.375000 0.475696
vt 0.625000 0.475696
vt 0.375000 0.451810
vt 0.625000 0.451810
vt 0.375000 0.426855
vt 0.625000 0.426855
vt 0.375000 0.401566
vt 0.625000 0.401566
vt 0.375000 0.348434
vt 0.375000 0.323145
vt 0.375000 0.298190
vt 0.375000 0.274304
vt 0.579912 0.500000
vt 0.873835 0.500376
vt 0.819903 0.750350
vt 0.873966 0.501526
vt 0.834469 0.751387
vt 0.875000 0.503513
vt 0.875000 0.750000
vt 0.625000 0.000000
vt 0.625000 0.246487
vt 0.607985 0.250108
vt 0.593633 -0.001791
vt 0.599458 0.250049
vt 0.577048 -0.000813
vt 0.589941 0.250012
vt 0.558765 -0.000206
vt 0.680097 0.750350
vt 0.665531 0.751387
vt 0.652746 0.753050
vt 0.593633 0.751791
vt 0.577048 0.750813
vt 0.558765 0.750206
vt 0.625000 0.929301
vt 0.622861 0.945033
vt 0.616553 0.959976
vt 0.606391 0.973381
vt 0.592884 0.984576
vt 0.576712 0.992999
vt 0.558683 0.998227
vt 0.539702 1.000000
vt 0.375000 1.000000
s 1
f 20/1/1 19/2/2 38/2/3 29/3/4 6/4/5
f 8/5/6 18/6/7 53/6/8 55/7/9 56/8/10 57/9/11 58/10/12 59/11/13 60/12/14 54/13/15 4/14/16
f 3/15/17 45/16/18 47/17/19 48/18/20 49/19/21 50/20/22 51/21/23 52/22/24 46/23/25 6/24/5 5/25/26
f 1/26/27 30/27/28 37/28/29 2/29/30
f 2/30/30 7/31/31 9/32/32 5/33/26 1/34/27
f 2/29/30 37/35/29 39/36/33 40/37/34 41/38/35 42/39/36 43/40/37 44/41/38 38/42/3 19/42/2 7/43/31
f 53/44/8 18/44/7 20/1/1 6/4/5 46/45/25
f 9/32/32 8/46/6 4/14/16 3/15/17 5/33/26
f 7/47/31 10/48/39 9/32/32
f 10/48/39 11/49/40 9/32/32
f 11/49/40 12/50/41 9/32/32
f 12/50/41 13/51/42 9/32/32
f 13/51/42 14/51/43 9/32/32
f 14/51/43 15/52/44 9/32/32
f 15/52/44 16/53/45 9/32/32
f 16/53/45 17/54/46 9/32/32
f 17/54/46 8/55/6 9/32/32
f 18/56/7 21/57/47 20/58/1
f 21/57/47 22/59/48 20/58/1
f 22/59/48 23/60/49 20/58/1
f 23/60/49 24/61/50 20/58/1
f 24/61/50 25/62/51 20/58/1
f 25/62/51 26/63/52 20/58/1
f 26/63/52 27/64/53 20/58/1
f 27/64/53 28/65/54 20/58/1
f 28/65/54 19/42/2 20/58/1
f 18/6/7 8/5/6 17/66/46 21/67/47
f 21/67/47 17/66/46 16/68/45 22/69/48
f 22/69/48 16/68/45 15/70/44 23/71/49
f 23/71/49 15/70/44 14/72/43 24/73/50
f 24/73/50 14/72/43 13/74/42 25/62/51
f 25/62/51 13/74/42 12/75/41 26/63/52
f 26/63/52 12/75/41 11/76/40 27/64/53
f 27/64/53 11/76/40 10/77/39 28/65/54
f 28/65/54 10/77/39 7/43/31 19/42/2
f 4/14/16 54/78/15 45/16/18 3/15/17
f 29/3/4 38/2/3 44/79/38 31/80/55
f 31/80/55 44/79/38 43/81/37 32/82/56
f 32/82/56 43/81/37 42/83/36 33/84/57
f 33/85/57 42/86/36 41/87/35 34/88/58
f 34/88/58 41/87/35 40/89/34 35/90/59
f 35/90/59 40/89/34 39/91/33 36/92/60
f 36/92/60 39/91/33 37/28/29 30/27/28
f 53/44/8 46/45/25 52/93/24 55/7/9
f 55/7/9 52/93/24 51/94/23 56/8/10
f 56/8/10 51/94/23 50/95/22 57/9/11
f 57/9/11 50/95/22 49/96/21 58/10/12
f 58/10/12 49/96/21 48/97/20 59/11/13
f 59/11/13 48/97/20 47/98/19 60/12/14
f 60/12/14 47/98/19 45/16/18 54/78/15
f 5/25/26 6/24/5 29/99/4 31/100/55 32/101/56 33/102/57 34/103/58 35/104/59 36/105/60 30/106/28 1/107/27
