# Blender 3.6.4
# www.blender.org
mtllib LightningBolt.mtl
o NurbsPath
v -1.640395 0.002045 -0.492410
v -1.638994 0.002045 -0.491101
v -1.638293 0.000000 -0.490446
v -1.638994 -0.002045 -0.491101
v -1.640395 -0.002045 -0.492410
v -1.641095 -0.000000 -0.493065
v -1.885241 0.002928 0.498190
v -1.883002 0.002928 0.499446
v -1.881883 0.000000 0.500074
v -1.883002 -0.002928 0.499446
v -1.885241 -0.002928 0.498190
v -1.886361 0.000000 0.497562
v -1.885241 0.002928 0.498190
v -1.883002 0.002928 0.499446
v -1.881883 0.000000 0.500074
v -1.883002 -0.002928 0.499446
v -1.885241 -0.002928 0.498190
v -1.886361 0.000000 0.497562
v -1.881746 0.004740 0.486088
v -1.878496 0.004586 0.489007
v -1.876951 0.000000 0.490400
v -1.878496 -0.004586 0.489007
v -1.881746 -0.004740 0.486088
v -1.883454 -0.000000 0.484559
v -1.860164 0.011742 0.423105
v -1.852465 0.011508 0.431335
v -1.848861 0.000000 0.435563
v -1.852465 -0.011508 0.431335
v -1.860164 -0.011742 0.423105
v -1.863945 -0.000000 0.418114
v -1.809112 0.018658 0.292003
v -1.796168 0.018613 0.303605
v -1.789766 0.000000 0.309479
v -1.796168 -0.018613 0.303605
v -1.809112 -0.018658 0.292003
v -1.815561 -0.000000 0.286036
v -1.767110 0.018806 0.194913
v -1.753879 0.018806 0.206203
v -1.747264 0.000000 0.211847
v -1.753879 -0.018806 0.206203
v -1.767110 -0.018806 0.194913
v -1.773725 -0.000000 0.189269
v -1.725697 0.018806 0.099547
v -1.712444 0.018806 0.110785
v -1.705818 0.000000 0.116403
v -1.712444 -0.018806 0.110785
v -1.725697 -0.018806 0.099547
v -1.732324 -0.000000 0.093928
v -1.688461 0.018806 0.012630
v -1.675116 0.018806 0.023653
v -1.668444 0.000000 0.029164
v -1.675116 -0.018806 0.023653
v -1.688461 -0.018806 0.012630
v -1.695133 -0.000000 0.007119
v -1.659626 0.018806 -0.057351
v -1.646019 0.018806 -0.046979
v -1.639215 0.000000 -0.041792
v -1.646019 -0.018806 -0.046979
v -1.659626 -0.018806 -0.057351
v -1.666429 -0.000000 -0.062537
v -1.641899 0.018806 -0.089836
v -1.630793 0.018806 -0.104972
v -1.625240 0.000000 -0.112540
v -1.630793 -0.018806 -0.104972
v -1.641899 -0.018806 -0.089836
v -1.647452 -0.000000 -0.082269
v -1.653105 0.018806 -0.074214
v -1.659784 0.018806 -0.093806
v -1.663124 0.000000 -0.103603
v -1.659784 -0.018806 -0.093806
v -1.653105 -0.018806 -0.074214
v -1.649765 -0.000000 -0.064417
v -1.684594 0.018806 -0.052994
v -1.691309 0.018806 -0.072562
v -1.694667 0.000000 -0.082346
v -1.691309 -0.018806 -0.072562
v -1.684594 -0.018806 -0.052994
v -1.681236 -0.000000 -0.043210
v -1.723716 0.018806 -0.026571
v -1.730433 0.018806 -0.046138
v -1.733792 0.000000 -0.055921
v -1.730433 -0.018806 -0.046138
v -1.723716 -0.018806 -0.026571
v -1.720357 -0.000000 -0.016788
v -1.766671 0.018806 0.002401
v -1.773373 0.018806 -0.017176
v -1.776724 0.000000 -0.026964
v -1.773373 -0.018806 -0.017176
v -1.766671 -0.018806 0.002401
v -1.763319 -0.000000 0.012190
v -1.809667 0.018806 0.031278
v -1.816335 0.018806 0.011678
v -1.819669 0.000000 0.001878
v -1.816335 -0.018806 0.011678
v -1.809667 -0.018806 0.031278
v -1.806334 -0.000000 0.041078
v -1.848922 0.018806 0.057418
v -1.855519 0.018806 0.037771
v -1.858818 0.000000 0.027947
v -1.855519 -0.018806 0.037771
v -1.848922 -0.018806 0.057418
v -1.845623 -0.000000 0.067241
v -1.880677 0.018806 0.078195
v -1.887100 0.018806 0.058435
v -1.890311 0.000000 0.048554
v -1.887100 -0.018806 0.058435
v -1.880677 -0.018806 0.078195
v -1.877465 -0.000000 0.088075
v -1.909864 0.018806 0.088415
v -1.898560 0.018806 0.073570
v -1.892908 0.000000 0.066148
v -1.898560 -0.018806 0.073570
v -1.909864 -0.018806 0.088415
v -1.915516 -0.000000 0.095838
v -1.893246 0.018806 0.028429
v -1.879764 0.018806 0.039118
v -1.873023 0.000000 0.044462
v -1.879764 -0.018806 0.039118
v -1.893246 -0.018806 0.028429
v -1.899987 -0.000000 0.023085
v -1.863263 0.018806 -0.040888
v -1.850121 0.018806 -0.029396
v -1.843551 0.000000 -0.023650
v -1.850121 -0.018806 -0.029396
v -1.863263 -0.018806 -0.040888
v -1.869834 -0.000000 -0.046633
v -1.825124 0.018806 -0.124306
v -1.812141 0.018806 -0.112467
v -1.805649 0.000000 -0.106547
v -1.812141 -0.018806 -0.112467
v -1.825124 -0.018806 -0.124306
v -1.831616 -0.000000 -0.130226
v -1.782632 0.018806 -0.214610
v -1.769737 0.018806 -0.202581
v -1.763290 0.000000 -0.196566
v -1.769737 -0.018806 -0.202581
v -1.782632 -0.018806 -0.214610
v -1.789079 -0.000000 -0.220624
v -1.738845 0.018659 -0.305942
v -1.726115 0.018661 -0.293871
v -1.719749 0.000000 -0.287835
v -1.726115 -0.018661 -0.293871
v -1.738845 -0.018659 -0.305942
v -1.745208 -0.000000 -0.311976
v -1.676627 0.011524 -0.427285
v -1.668822 0.011542 -0.419696
v -1.664910 0.000000 -0.415892
v -1.668822 -0.011542 -0.419696
v -1.676627 -0.011524 -0.427285
v -1.680521 -0.000000 -0.431070
v -1.645702 0.004061 -0.483482
v -1.642943 0.004073 -0.480819
v -1.641557 0.000000 -0.479481
v -1.642943 -0.004073 -0.480819
v -1.645702 -0.004061 -0.483482
v -1.647075 -0.000000 -0.484808
v -1.640395 0.002045 -0.492410
v -1.638994 0.002045 -0.491101
v -1.638293 0.000000 -0.490446
v -1.638994 -0.002045 -0.491101
v -1.640395 -0.002045 -0.492410
v -1.641095 -0.000000 -0.493065
vn 0.6829 -0.0000 -0.7305
vn -0.4892 -0.0000 0.8722
vn -0.4892 -0.0001 0.8722
vn -0.6514 0.7550 -0.0751
vn -0.6284 0.7716 -0.0987
vn -0.9677 -0.0000 -0.2521
vn -0.9758 -0.0000 -0.2185
vn 0.4790 0.8110 0.3359
vn 0.4954 0.8032 0.3308
vn 0.8909 -0.0000 0.4542
vn 0.8906 -0.0000 0.4549
vn 0.4790 -0.8110 0.3358
vn 0.4954 -0.8032 0.3308
vn -0.6514 -0.7550 -0.0751
vn -0.6284 -0.7716 -0.0987
vn -0.6004 0.7844 -0.1556
vn -0.9489 -0.0000 -0.3156
vn 0.5139 0.8039 0.2994
vn 0.8979 -0.0000 0.4403
vn 0.5139 -0.8039 0.2994
vn -0.6004 -0.7844 -0.1556
vn -0.5696 0.7940 -0.2125
vn -0.9288 -0.0000 -0.3706
vn 0.5388 0.8018 0.2586
vn 0.9113 -0.0000 0.4116
vn 0.5388 -0.8018 0.2586
vn -0.5696 -0.7940 -0.2125
vn -0.5524 0.7987 -0.2388
vn -0.9176 -0.0000 -0.3975
vn 0.5519 0.7985 0.2404
vn 0.9171 -0.0000 0.3987
vn 0.5519 -0.7985 0.2404
vn -0.5524 -0.7987 -0.2388
vn -0.5523 0.7989 -0.2382
vn -0.9182 -0.0000 -0.3961
vn 0.5537 0.7978 0.2388
vn 0.9182 -0.0000 0.3961
vn 0.5537 -0.7978 0.2388
vn -0.5523 -0.7989 -0.2382
vn -0.5543 0.7991 -0.2329
vn -0.9219 -0.0000 -0.3874
vn 0.5582 0.7959 0.2345
vn 0.9219 -0.0000 0.3873
vn 0.5582 -0.7959 0.2345
vn -0.5543 -0.7991 -0.2329
vn -0.5734 0.7549 -0.3183
vn -0.8800 -0.0000 -0.4751
vn 0.6303 0.7513 0.1956
vn 0.9538 -0.0000 0.3006
vn 0.6303 -0.7513 0.1956
vn -0.5734 -0.7549 -0.3183
vn 0.0381 0.9988 -0.0306
vn 0.6632 -0.0000 -0.7484
vn 0.5700 0.7380 -0.3613
vn 0.8332 -0.0000 -0.5530
vn 0.5700 -0.7380 -0.3613
vn 0.0381 -0.9988 -0.0306
vn 0.5547 0.7332 0.3934
vn 0.7784 -0.0000 0.6278
vn -0.2390 0.8268 -0.5092
vn -0.4348 -0.0000 -0.9005
vn -0.2390 -0.8268 -0.5092
vn 0.5547 -0.7332 0.3934
vn 0.2972 0.8471 0.4406
vn 0.5593 -0.0000 0.8290
vn -0.2973 0.8469 -0.4408
vn -0.5593 -0.0000 -0.8290
vn -0.2973 -0.8469 -0.4408
vn 0.2972 -0.8471 0.4406
vn 0.2974 0.8470 0.4407
vn 0.5594 -0.0000 0.8289
vn -0.2974 0.8470 -0.4406
vn -0.5594 -0.0000 -0.8289
vn -0.2974 -0.8470 -0.4406
vn 0.2974 -0.8470 0.4407
vn 0.2969 0.8470 0.4411
vn 0.5584 -0.0000 0.8296
vn -0.2966 0.8472 -0.4407
vn -0.5584 -0.0000 -0.8296
vn -0.2966 -0.8472 -0.4407
vn 0.2969 -0.8470 0.4411
vn 0.2955 0.8470 0.4419
vn 0.5559 -0.0000 0.8313
vn -0.2950 0.8475 -0.4412
vn -0.5559 -0.0000 -0.8312
vn -0.2950 -0.8475 -0.4412
vn 0.2955 -0.8470 0.4419
vn 0.2927 0.8471 0.4435
vn 0.5509 -0.0000 0.8346
vn -0.2918 0.8482 -0.4421
vn -0.5509 -0.0000 -0.8346
vn -0.2918 -0.8482 -0.4421
vn 0.2927 -0.8471 0.4435
vn 0.2273 0.8272 0.5139
vn 0.4151 -0.0000 0.9098
vn -0.5435 0.7372 -0.4014
vn -0.7667 -0.0000 -0.6420
vn -0.5435 -0.7372 -0.4014
vn 0.2273 -0.8272 0.5139
vn -0.5791 0.7357 0.3512
vn -0.8432 -0.0000 0.5376
vn -0.0336 0.9991 0.0258
vn -0.6654 -0.0000 0.7465
vn -0.0336 -0.9991 0.0258
vn -0.5791 -0.7357 0.3512
vn -0.6260 0.7523 -0.2053
vn 0.5684 0.7588 0.3181
vn 0.8772 -0.0000 0.4801
vn 0.5684 -0.7588 0.3181
vn -0.6260 -0.7523 -0.2053
vn -0.5518 0.7970 -0.2454
vn -0.9137 -0.0000 -0.4064
vn 0.5463 0.8016 0.2430
vn 0.9137 -0.0000 0.4064
vn 0.5463 -0.8016 0.2430
vn -0.5518 -0.7970 -0.2454
vn -0.5449 0.7995 -0.2527
vn -0.9072 -0.0000 -0.4208
vn 0.5419 0.8019 0.2514
vn 0.9072 -0.0000 0.4208
vn 0.5419 -0.8019 0.2514
vn -0.5449 -0.7995 -0.2527
vn -0.5406 0.8009 -0.2574
vn -0.9031 -0.0000 -0.4293
vn 0.5398 0.8022 0.2553
vn 0.9037 -0.0000 0.4282
vn 0.5398 -0.8022 0.2553
vn -0.5406 -0.8009 -0.2574
vn -0.5211 0.8055 -0.2822
vn -0.8906 -0.0000 -0.4549
vn 0.5548 0.7979 0.2357
vn 0.9111 -0.0000 0.4122
vn 0.5548 -0.7979 0.2357
vn -0.5211 -0.8055 -0.2822
vn -0.4802 0.8122 -0.3314
vn -0.8648 -0.0000 -0.5022
vn 0.5884 0.7862 0.1890
vn 0.9291 -0.0000 0.3699
vn 0.5884 -0.7862 0.1890
vn -0.4802 -0.8122 -0.3314
vn -0.4290 0.8155 -0.3885
vn -0.8311 -0.0000 -0.5561
vn 0.6259 0.7687 0.1317
vn 0.9486 -0.0000 0.3165
vn 0.6259 -0.7687 0.1317
vn -0.4290 -0.8155 -0.3885
vn -0.3972 0.8158 -0.4203
vn -0.8099 -0.0000 -0.5865
vn 0.6466 0.7564 0.0991
vn 0.9584 -0.0000 0.2853
vn 0.6466 -0.7564 0.0991
vn -0.3972 -0.8158 -0.4203
vt 1.000000 0.000000
vt 0.600000 0.000000
vt 0.800000 0.000000
vt 0.400000 0.000000
vt 0.000000 0.000000
vt 0.200000 0.000000
vt 0.000000 1.000000
vt 0.041667 1.000000
vt 0.041667 0.833333
vt 0.000000 0.833333
vt 0.000000 0.166667
vt 0.041667 0.166667
vt 0.041667 0.000000
vt 0.000000 0.333333
vt 0.041667 0.333333
vt 0.000000 0.500000
vt 0.041667 0.500000
vt 0.000000 0.666667
vt 0.041667 0.666667
vt 0.083333 1.000000
vt 0.083333 0.833333
vt 0.083333 0.166667
vt 0.083333 0.000000
vt 0.083333 0.333333
vt 0.083333 0.500000
vt 0.083333 0.666667
vt 0.125000 1.000000
vt 0.125000 0.833333
vt 0.125000 0.166667
vt 0.125000 0.000000
vt 0.125000 0.333333
vt 0.125000 0.500000
vt 0.125000 0.666667
vt 0.166667 1.000000
vt 0.166667 0.833333
vt 0.166667 0.166667
vt 0.166667 0.000000
vt 0.166667 0.333333
vt 0.166667 0.500000
vt 0.166667 0.666667
vt 0.208333 1.000000
vt 0.208333 0.833333
vt 0.208333 0.166667
vt 0.208333 0.000000
vt 0.208333 0.333333
vt 0.208333 0.500000
vt 0.208333 0.666667
vt 0.250000 1.000000
vt 0.250000 0.833333
vt 0.250000 0.166667
vt 0.250000 0.000000
vt 0.250000 0.333333
vt 0.250000 0.500000
vt 0.250000 0.666667
vt 0.291667 1.000000
vt 0.291667 0.833333
vt 0.291667 0.166667
vt 0.291667 0.000000
vt 0.291667 0.333333
vt 0.291667 0.500000
vt 0.291667 0.666667
vt 0.333333 1.000000
vt 0.333333 0.833333
vt 0.333333 0.166667
vt 0.333333 0.000000
vt 0.333333 0.333333
vt 0.333333 0.500000
vt 0.333333 0.666667
vt 0.375000 1.000000
vt 0.375000 0.833333
vt 0.375000 0.166667
vt 0.375000 0.000000
vt 0.375000 0.333333
vt 0.375000 0.500000
vt 0.375000 0.666667
vt 0.416667 1.000000
vt 0.416667 0.833333
vt 0.416667 0.166667
vt 0.416667 0.000000
vt 0.416667 0.333333
vt 0.416667 0.500000
vt 0.416667 0.666667
vt 0.458333 1.000000
vt 0.458333 0.833333
vt 0.458333 0.166667
vt 0.458333 0.000000
vt 0.458333 0.333333
vt 0.458333 0.500000
vt 0.458333 0.666667
vt 0.500000 1.000000
vt 0.500000 0.833333
vt 0.500000 0.166667
vt 0.500000 0.000000
vt 0.500000 0.333333
vt 0.500000 0.500000
vt 0.500000 0.666667
vt 0.541667 1.000000
vt 0.541667 0.833333
vt 0.541667 0.166667
vt 0.541667 0.000000
vt 0.541667 0.333333
vt 0.541667 0.500000
vt 0.541667 0.666667
vt 0.583333 1.000000
vt 0.583333 0.833333
vt 0.583333 0.166667
vt 0.583333 0.000000
vt 0.583333 0.333333
vt 0.583333 0.500000
vt 0.583333 0.666667
vt 0.625000 1.000000
vt 0.625000 0.833333
vt 0.625000 0.166667
vt 0.625000 0.000000
vt 0.625000 0.333333
vt 0.625000 0.500000
vt 0.625000 0.666667
vt 0.666667 1.000000
vt 0.666667 0.833333
vt 0.666667 0.166667
vt 0.666667 0.000000
vt 0.666667 0.333333
vt 0.666667 0.500000
vt 0.666667 0.666667
vt 0.708333 1.000000
vt 0.708333 0.833333
vt 0.708333 0.166667
vt 0.708333 0.000000
vt 0.708333 0.333333
vt 0.708333 0.500000
vt 0.708333 0.666667
vt 0.750000 1.000000
vt 0.750000 0.833333
vt 0.750000 0.166667
vt 0.750000 0.000000
vt 0.750000 0.333333
vt 0.750000 0.500000
vt 0.750000 0.666667
vt 0.791667 1.000000
vt 0.791667 0.833333
vt 0.791667 0.166667
vt 0.791667 0.000000
vt 0.791667 0.333333
vt 0.791667 0.500000
vt 0.791667 0.666667
vt 0.833333 1.000000
vt 0.833333 0.833333
vt 0.833333 0.166667
vt 0.833333 0.000000
vt 0.833333 0.333333
vt 0.833333 0.500000
vt 0.833333 0.666667
vt 0.875000 1.000000
vt 0.875000 0.833333
vt 0.875000 0.166667
vt 0.875000 0.000000
vt 0.875000 0.333333
vt 0.875000 0.500000
vt 0.875000 0.666667
vt 0.916667 1.000000
vt 0.916667 0.833333
vt 0.916667 0.166667
vt 0.916667 0.000000
vt 0.916667 0.333333
vt 0.916667 0.500000
vt 0.916667 0.666667
vt 0.958333 1.000000
vt 0.958333 0.833333
vt 0.958333 0.166667
vt 0.958333 0.000000
vt 0.958333 0.333333
vt 0.958333 0.500000
vt 0.958333 0.666667
vt 1.000000 1.000000
vt 1.000000 0.833333
vt 1.000000 0.166667
vt 1.000000 0.333333
vt 1.000000 0.500000
vt 1.000000 0.666667
s 1
f 6/1/1 4/2/1 5/3/1
f 6/1/1 3/4/1 4/2/1
f 1/5/1 3/4/1 6/1/1
f 1/5/1 2/6/1 3/4/1
f 10/2/2 12/1/2 11/3/3
f 9/4/2 12/1/2 10/2/2
f 9/4/2 7/5/2 12/1/2
f 8/6/2 7/5/2 9/4/2
f 13/7/4 19/8/5 24/9/6 18/10/7
f 14/11/8 20/12/9 19/13/5 13/5/4
f 15/14/10 21/15/11 20/12/9 14/11/8
f 16/16/12 22/17/13 21/15/11 15/14/10
f 17/18/14 23/19/15 22/17/13 16/16/12
f 18/10/7 24/9/6 23/19/15 17/18/14
f 19/8/5 25/20/16 30/21/17 24/9/6
f 20/12/9 26/22/18 25/23/16 19/13/5
f 21/15/11 27/24/19 26/22/18 20/12/9
f 22/17/13 28/25/20 27/24/19 21/15/11
f 23/19/15 29/26/21 28/25/20 22/17/13
f 24/9/6 30/21/17 29/26/21 23/19/15
f 25/20/16 31/27/22 36/28/23 30/21/17
f 26/22/18 32/29/24 31/30/22 25/23/16
f 27/24/19 33/31/25 32/29/24 26/22/18
f 28/25/20 34/32/26 33/31/25 27/24/19
f 29/26/21 35/33/27 34/32/26 28/25/20
f 30/21/17 36/28/23 35/33/27 29/26/21
f 31/27/22 37/34/28 42/35/29 36/28/23
f 32/29/24 38/36/30 37/37/28 31/30/22
f 33/31/25 39/38/31 38/36/30 32/29/24
f 34/32/26 40/39/32 39/38/31 33/31/25
f 35/33/27 41/40/33 40/39/32 34/32/26
f 36/28/23 42/35/29 41/40/33 35/33/27
f 37/34/28 43/41/34 48/42/35 42/35/29
f 38/36/30 44/43/36 43/44/34 37/37/28
f 39/38/31 45/45/37 44/43/36 38/36/30
f 40/39/32 46/46/38 45/45/37 39/38/31
f 41/40/33 47/47/39 46/46/38 40/39/32
f 42/35/29 48/42/35 47/47/39 41/40/33
f 43/41/34 49/48/40 54/49/41 48/42/35
f 44/43/36 50/50/42 49/51/40 43/44/34
f 45/45/37 51/52/43 50/50/42 44/43/36
f 46/46/38 52/53/44 51/52/43 45/45/37
f 47/47/39 53/54/45 52/53/44 46/46/38
f 48/42/35 54/49/41 53/54/45 47/47/39
f 49/48/40 55/55/46 60/56/47 54/49/41
f 50/50/42 56/57/48 55/58/46 49/51/40
f 51/52/43 57/59/49 56/57/48 50/50/42
f 52/53/44 58/60/50 57/59/49 51/52/43
f 53/54/45 59/61/51 58/60/50 52/53/44
f 54/49/41 60/56/47 59/61/51 53/54/45
f 55/55/46 61/62/52 66/63/53 60/56/47
f 56/57/48 62/64/54 61/65/52 55/58/46
f 57/59/49 63/66/55 62/64/54 56/57/48
f 58/60/50 64/67/56 63/66/55 57/59/49
f 59/61/51 65/68/57 64/67/56 58/60/50
f 60/56/47 66/63/53 65/68/57 59/61/51
f 61/62/52 67/69/58 72/70/59 66/63/53
f 62/64/54 68/71/60 67/72/58 61/65/52
f 63/66/55 69/73/61 68/71/60 62/64/54
f 64/67/56 70/74/62 69/73/61 63/66/55
f 65/68/57 71/75/63 70/74/62 64/67/56
f 66/63/53 72/70/59 71/75/63 65/68/57
f 67/69/58 73/76/64 78/77/65 72/70/59
f 68/71/60 74/78/66 73/79/64 67/72/58
f 69/73/61 75/80/67 74/78/66 68/71/60
f 70/74/62 76/81/68 75/80/67 69/73/61
f 71/75/63 77/82/69 76/81/68 70/74/62
f 72/70/59 78/77/65 77/82/69 71/75/63
f 73/76/64 79/83/70 84/84/71 78/77/65
f 74/78/66 80/85/72 79/86/70 73/79/64
f 75/80/67 81/87/73 80/85/72 74/78/66
f 76/81/68 82/88/74 81/87/73 75/80/67
f 77/82/69 83/89/75 82/88/74 76/81/68
f 78/77/65 84/84/71 83/89/75 77/82/69
f 79/83/70 85/90/76 90/91/77 84/84/71
f 80/85/72 86/92/78 85/93/76 79/86/70
f 81/87/73 87/94/79 86/92/78 80/85/72
f 82/88/74 88/95/80 87/94/79 81/87/73
f 83/89/75 89/96/81 88/95/80 82/88/74
f 84/84/71 90/91/77 89/96/81 83/89/75
f 85/90/76 91/97/82 96/98/83 90/91/77
f 86/92/78 92/99/84 91/100/82 85/93/76
f 87/94/79 93/101/85 92/99/84 86/92/78
f 88/95/80 94/102/86 93/101/85 87/94/79
f 89/96/81 95/103/87 94/102/86 88/95/80
f 90/91/77 96/98/83 95/103/87 89/96/81
f 91/97/82 97/104/88 102/105/89 96/98/83
f 92/99/84 98/106/90 97/107/88 91/100/82
f 93/101/85 99/108/91 98/106/90 92/99/84
f 94/102/86 100/109/92 99/108/91 93/101/85
f 95/103/87 101/110/93 100/109/92 94/102/86
f 96/98/83 102/105/89 101/110/93 95/103/87
f 97/104/88 103/111/94 108/112/95 102/105/89
f 98/106/90 104/113/96 103/114/94 97/107/88
f 99/108/91 105/115/97 104/113/96 98/106/90
f 100/109/92 106/116/98 105/115/97 99/108/91
f 101/110/93 107/117/99 106/116/98 100/109/92
f 102/105/89 108/112/95 107/117/99 101/110/93
f 103/111/94 109/118/100 114/119/101 108/112/95
f 104/113/96 110/120/102 109/121/100 103/114/94
f 105/115/97 111/122/103 110/120/102 104/113/96
f 106/116/98 112/123/104 111/122/103 105/115/97
f 107/117/99 113/124/105 112/123/104 106/116/98
f 108/112/95 114/119/101 113/124/105 107/117/99
f 109/118/100 115/125/106 120/126/17 114/119/101
f 110/120/102 116/127/107 115/128/106 109/121/100
f 111/122/103 117/129/108 116/127/107 110/120/102
f 112/123/104 118/130/109 117/129/108 111/122/103
f 113/124/105 119/131/110 118/130/109 112/123/104
f 114/119/101 120/126/17 119/131/110 113/124/105
f 115/125/106 121/132/111 126/133/112 120/126/17
f 116/127/107 122/134/113 121/135/111 115/128/106
f 117/129/108 123/136/114 122/134/113 116/127/107
f 118/130/109 124/137/115 123/136/114 117/129/108
f 119/131/110 125/138/116 124/137/115 118/130/109
f 120/126/17 126/133/112 125/138/116 119/131/110
f 121/132/111 127/139/117 132/140/118 126/133/112
f 122/134/113 128/141/119 127/142/117 121/135/111
f 123/136/114 129/143/120 128/141/119 122/134/113
f 124/137/115 130/144/121 129/143/120 123/136/114
f 125/138/116 131/145/122 130/144/121 124/137/115
f 126/133/112 132/140/118 131/145/122 125/138/116
f 127/139/117 133/146/123 138/147/124 132/140/118
f 128/141/119 134/148/125 133/149/123 127/142/117
f 129/143/120 135/150/126 134/148/125 128/141/119
f 130/144/121 136/151/127 135/150/126 129/143/120
f 131/145/122 137/152/128 136/151/127 130/144/121
f 132/140/118 138/147/124 137/152/128 131/145/122
f 133/146/123 139/153/129 144/154/130 138/147/124
f 134/148/125 140/155/131 139/156/129 133/149/123
f 135/150/126 141/157/132 140/155/131 134/148/125
f 136/151/127 142/158/133 141/157/132 135/150/126
f 137/152/128 143/159/134 142/158/133 136/151/127
f 138/147/124 144/154/130 143/159/134 137/152/128
f 139/153/129 145/160/135 150/161/136 144/154/130
f 140/155/131 146/162/137 145/163/135 139/156/129
f 141/157/132 147/164/138 146/162/137 140/155/131
f 142/158/133 148/165/139 147/164/138 141/157/132
f 143/159/134 149/166/140 148/165/139 142/158/133
f 144/154/130 150/161/136 149/166/140 143/159/134
f 145/160/135 151/167/141 156/168/142 150/161/136
f 146/162/137 152/169/143 151/170/141 145/163/135
f 147/164/138 153/171/144 152/169/143 146/162/137
f 148/165/139 154/172/145 153/171/144 147/164/138
f 149/166/140 155/173/146 154/172/145 148/165/139
f 150/161/136 156/168/142 155/173/146 149/166/140
f 151/167/141 157/174/147 162/175/148 156/168/142
f 152/169/143 158/176/149 157/1/147 151/170/141
f 153/171/144 159/177/150 158/176/149 152/169/143
f 154/172/145 160/178/151 159/177/150 153/171/144
f 155/173/146 161/179/152 160/178/151 154/172/145
f 156/168/142 162/175/148 161/179/152 155/173/146
