# Blender 3.6.4
# www.blender.org
mtllib PounceImpact.mtl
o Circle
v 0.000000 0.000000 -1.000000
v -0.195090 0.000000 -0.980785
v -0.382683 0.000000 -0.923880
v -0.555570 0.000000 -0.831470
v -0.707107 0.000000 -0.707107
v -0.831470 0.000000 -0.555570
v -0.923880 0.000000 -0.382683
v -0.980785 0.000000 -0.195090
v -1.000000 0.000000 0.000000
v -0.980785 0.000000 0.195090
v -0.923880 0.000000 0.382683
v -0.831470 0.000000 0.555570
v -0.707107 0.000000 0.707107
v -0.555570 0.000000 0.831470
v -0.382683 0.000000 0.923880
v -0.195090 0.000000 0.980785
v 0.000000 0.000000 1.000000
v 0.195090 0.000000 0.980785
v 0.382683 0.000000 0.923880
v 0.555570 0.000000 0.831470
v 0.707107 0.000000 0.707107
v 0.831470 0.000000 0.555570
v 0.923880 0.000000 0.382683
v 0.980785 0.000000 0.195090
v 1.000000 0.000000 0.000000
v 0.980785 0.000000 -0.195090
v 0.923880 0.000000 -0.382683
v 0.831470 0.000000 -0.555570
v 0.707107 0.000000 -0.707107
v 0.555570 0.000000 -0.831470
v 0.382683 0.000000 -0.923880
v 0.195090 0.000000 -0.980785
v -0.000000 0.080000 -0.800000
v -0.156072 0.080000 -0.784628
v -0.306147 0.080000 -0.739104
v -0.444456 0.080000 -0.665176
v -0.565685 0.080000 -0.565685
v -0.665176 0.080000 -0.444456
v -0.739104 0.080000 -0.306147
v -0.784628 0.080000 -0.156072
v -0.800000 0.080000 -0.000000
v -0.784628 0.080000 0.156072
v -0.739104 0.080000 0.306147
v -0.665176 0.080000 0.444456
v -0.565685 0.080000 0.565685
v -0.444456 0.080000 0.665176
v -0.306147 0.080000 0.739104
v -0.156072 0.080000 0.784628
v -0.000000 0.080000 0.800000
v 0.156072 0.080000 0.784628
v 0.306147 0.080000 0.739104
v 0.444456 0.080000 0.665176
v 0.565685 0.080000 0.565685
v 0.665176 0.080000 0.444456
v 0.739104 0.080000 0.306147
v 0.784628 0.080000 0.156072
v 0.800000 0.080000 -0.000000
v 0.784628 0.080000 -0.156072
v 0.739104 0.080000 -0.306147
v 0.665176 0.080000 -0.444456
v 0.565685 0.080000 -0.565685
v 0.444456 0.080000 -0.665176
v 0.306147 0.080000 -0.739104
v 0.156072 0.080000 -0.784628
v -0.000000 -0.080000 -0.800000
v -0.156072 -0.080000 -0.784628
v -0.306147 -0.080000 -0.739104
v -0.444456 -0.080000 -0.665176
v -0.565685 -0.080000 -0.565685
v -0.665176 -0.080000 -0.444456
v -0.739104 -0.080000 -0.306147
v -0.784628 -0.080000 -0.156072
v -0.800000 -0.080000 -0.000000
v -0.784628 -0.080000 0.156072
v -0.739104 -0.080000 0.306147
v -0.665176 -0.080000 0.444456
v -0.565685 -0.080000 0.565685
v -0.444456 -0.080000 0.665176
v -0.306147 -0.080000 0.739104
v -0.156072 -0.080000 0.784628
v -0.000000 -0.080000 0.800000
v 0.156072 -0.080000 0.784628
v 0.306147 -0.080000 0.739104
v 0.444456 -0.080000 0.665176
v 0.565685 -0.080000 0.565685
v 0.665176 -0.080000 0.444456
v 0.739104 -0.080000 0.306147
v 0.784628 -0.080000 0.156072
v 0.800000 -0.080000 -0.000000
v 0.784628 -0.080000 -0.156072
v 0.739104 -0.080000 -0.306147
v 0.665176 -0.080000 -0.444456
v 0.565685 -0.080000 -0.565685
v 0.444456 -0.080000 -0.665176
v 0.306147 -0.080000 -0.739104
v 0.156072 -0.080000 -0.784628
vn 0.9239 -0.0000 -0.3827
vn 0.9808 -0.0000 -0.1951
vn 0.3643 -0.9285 -0.0725
vn 0.3431 -0.9285 -0.1421
vn -1.0000 -0.0000 -0.0000
vn -0.9808 -0.0000 -0.1951
vn -0.3643 -0.9285 -0.0725
vn -0.3714 -0.9285 -0.0000
vn 0.8315 -0.0000 -0.5556
vn 0.3088 -0.9285 -0.2063
vn -0.9808 -0.0000 0.1951
vn -0.3643 -0.9285 0.0725
vn 0.7071 -0.0000 -0.7071
vn 0.2626 -0.9285 -0.2626
vn -0.9239 -0.0000 0.3827
vn -0.3431 -0.9285 0.1421
vn 0.5556 -0.0000 -0.8315
vn 0.2063 -0.9285 -0.3088
vn -0.8315 -0.0000 0.5556
vn -0.3088 -0.9285 0.2063
vn 0.3827 -0.0000 -0.9239
vn 0.1421 -0.9285 -0.3431
vn 0.1951 -0.0000 0.9808
vn -0.0000 -0.0000 1.0000
vn -0.0000 -0.9285 0.3714
vn 0.0725 -0.9285 0.3643
vn -0.7071 -0.0000 0.7071
vn -0.2626 -0.9285 0.2626
vn 0.1951 -0.0000 -0.9808
vn 0.0725 -0.9285 -0.3643
vn 0.3827 -0.0000 0.9239
vn 0.1421 -0.9285 0.3431
vn -0.5556 -0.0000 0.8315
vn -0.2063 -0.9285 0.3088
vn -0.0000 -0.0000 -1.0000
vn -0.0000 -0.9285 -0.3714
vn 0.5556 -0.0000 0.8315
vn 0.2063 -0.9285 0.3088
vn -0.3827 -0.0000 0.9239
vn -0.1421 -0.9285 0.3431
vn -0.1951 -0.0000 -0.9808
vn -0.0725 -0.9285 -0.3643
vn 0.7071 -0.0000 0.7071
vn 0.2626 -0.9285 0.2626
vn -0.1951 -0.0000 0.9808
vn -0.0725 -0.9285 0.3643
vn -0.3827 -0.0000 -0.9239
vn -0.1421 -0.9285 -0.3431
vn 0.8315 -0.0000 0.5556
vn 0.3088 -0.9285 0.2063
vn -0.5556 -0.0000 -0.8315
vn -0.2063 -0.9285 -0.3088
vn 0.9239 -0.0000 0.3827
vn 0.3431 -0.9285 0.1421
vn -0.7071 -0.0000 -0.7071
vn -0.2626 -0.9285 -0.2626
vn 0.9808 -0.0000 0.1951
vn 0.3643 -0.9285 0.0725
vn -0.8315 -0.0000 -0.5556
vn -0.3088 -0.9285 -0.2063
vn 1.0000 -0.0000 -0.0000
vn 0.3714 -0.9285 -0.0000
vn -0.9239 -0.0000 -0.3827
vn -0.3431 -0.9285 -0.1421
vn 0.3431 0.9285 -0.1421
vn 0.3643 0.9285 -0.0725
vn -0.3714 0.9285 -0.0000
vn -0.3643 0.9285 -0.0725
vn 0.3088 0.9285 -0.2063
vn -0.3643 0.9285 0.0725
vn 0.2626 0.9285 -0.2626
vn -0.3431 0.9285 0.1421
vn 0.2063 0.9285 -0.3088
vn -0.3088 0.9285 0.2063
vn 0.1421 0.9285 -0.3431
vn 0.0725 0.9285 0.3643
vn -0.0000 0.9285 0.3714
vn -0.2626 0.9285 0.2626
vn 0.0725 0.9285 -0.3643
vn 0.1421 0.9285 0.3431
vn -0.2063 0.9285 0.3088
vn -0.0000 0.9285 -0.3714
vn 0.2063 0.9285 0.3088
vn -0.1421 0.9285 0.3431
vn -0.0725 0.9285 -0.3643
vn 0.2626 0.9285 0.2626
vn -0.0725 0.9285 0.3643
vn -0.1421 0.9285 -0.3431
vn 0.3088 0.9285 0.2063
vn -0.2063 0.9285 -0.3088
vn 0.3431 0.9285 0.1421
vn -0.2626 0.9285 -0.2626
vn 0.3643 0.9285 0.0725
vn -0.3088 0.9285 -0.2063
vn 0.3714 0.9285 -0.0000
vn -0.3431 0.9285 -0.1421
vt 0.000000 0.000000
s 1
f 11/1/1 10/1/2 42/1/3 43/1/4
f 25/1/5 24/1/6 56/1/7 57/1/8
f 12/1/9 11/1/1 43/1/4 44/1/10
f 26/1/11 25/1/5 57/1/8 58/1/12
f 13/1/13 12/1/9 44/1/10 45/1/14
f 27/1/15 26/1/11 58/1/12 59/1/16
f 14/1/17 13/1/13 45/1/14 46/1/18
f 28/1/19 27/1/15 59/1/16 60/1/20
f 15/1/21 14/1/17 46/1/18 47/1/22
f 2/1/23 1/1/24 33/1/25 34/1/26
f 29/1/27 28/1/19 60/1/20 61/1/28
f 16/1/29 15/1/21 47/1/22 48/1/30
f 3/1/31 2/1/23 34/1/26 35/1/32
f 30/1/33 29/1/27 61/1/28 62/1/34
f 17/1/35 16/1/29 48/1/30 49/1/36
f 4/1/37 3/1/31 35/1/32 36/1/38
f 31/1/39 30/1/33 62/1/34 63/1/40
f 18/1/41 17/1/35 49/1/36 50/1/42
f 5/1/43 4/1/37 36/1/38 37/1/44
f 32/1/45 31/1/39 63/1/40 64/1/46
f 19/1/47 18/1/41 50/1/42 51/1/48
f 6/1/49 5/1/43 37/1/44 38/1/50
f 1/1/24 32/1/45 64/1/46 33/1/25
f 20/1/51 19/1/47 51/1/48 52/1/52
f 7/1/53 6/1/49 38/1/50 39/1/54
f 21/1/55 20/1/51 52/1/52 53/1/56
f 8/1/57 7/1/53 39/1/54 40/1/58
f 22/1/59 21/1/55 53/1/56 54/1/60
f 9/1/61 8/1/57 40/1/58 41/1/62
f 23/1/63 22/1/59 54/1/60 55/1/64
f 10/1/2 9/1/61 41/1/62 42/1/3
f 24/1/6 23/1/63 55/1/64 56/1/7
f 10/1/2 11/1/1 75/1/65 74/1/66
f 24/1/6 25/1/5 89/1/67 88/1/68
f 11/1/1 12/1/9 76/1/69 75/1/65
f 25/1/5 26/1/11 90/1/70 89/1/67
f 12/1/9 13/1/13 77/1/71 76/1/69
f 26/1/11 27/1/15 91/1/72 90/1/70
f 13/1/13 14/1/17 78/1/73 77/1/71
f 27/1/15 28/1/19 92/1/74 91/1/72
f 14/1/17 15/1/21 79/1/75 78/1/73
f 1/1/24 2/1/23 66/1/76 65/1/77
f 28/1/19 29/1/27 93/1/78 92/1/74
f 15/1/21 16/1/29 80/1/79 79/1/75
f 2/1/23 3/1/31 67/1/80 66/1/76
f 29/1/27 30/1/33 94/1/81 93/1/78
f 16/1/29 17/1/35 81/1/82 80/1/79
f 3/1/31 4/1/37 68/1/83 67/1/80
f 30/1/33 31/1/39 95/1/84 94/1/81
f 17/1/35 18/1/41 82/1/85 81/1/82
f 4/1/37 5/1/43 69/1/86 68/1/83
f 31/1/39 32/1/45 96/1/87 95/1/84
f 18/1/41 19/1/47 83/1/88 82/1/85
f 5/1/43 6/1/49 70/1/89 69/1/86
f 32/1/45 1/1/24 65/1/77 96/1/87
f 19/1/47 20/1/51 84/1/90 83/1/88
f 6/1/49 7/1/53 71/1/91 70/1/89
f 20/1/51 21/1/55 85/1/92 84/1/90
f 7/1/53 8/1/57 72/1/93 71/1/91
f 21/1/55 22/1/59 86/1/94 85/1/92
f 8/1/57 9/1/61 73/1/95 72/1/93
f 22/1/59 23/1/63 87/1/96 86/1/94
f 9/1/61 10/1/2 74/1/66 73/1/95
f 23/1/63 24/1/6 88/1/68 87/1/96
